# xmcd CD database file
#
# Track frame offsets:
#	150
#	34497
#	82305
#	117517
#	160300
#	195385
#	227047
#	250140
#
# Disc length: 4104 seconds
#
# Revision: 0
# Processed by: cddbd v1.5.1PL0 Copyright (c) Steve Scherf et al.
# Submitted via: CDex 1.51
#
DISCID=6b100608
DTITLE=Bill Cunliffe - Bill Cunliffe Sextet Live at Rocco
DYEAR=2002
DGENRE=Jazz
TTITLE0=Ain't Nothin' Nu
TTITLE1=Kingston
TTITLE2=Lakeside
TTITLE3=Unknown Flowers
TTITLE4=Hope
TTITLE5=Quirk of Fate
TTITLE6=Crepuscule With Nellie
TTITLE7=Fubar
EXTD=YEAR: 2002
EXTT0=
EXTT1=
EXTT2=
EXTT3=
EXTT4=
EXTT5=
EXTT6=
EXTT7=
PLAYORDER=
